Jinko.ufo
<glyph name="exclam" format="1">
  <advance width="639"/>
  <unicode hex="0021"/>
  <outline>
    <contour>
      <point x="333" y="-9" type="curve" smooth="yes"/>
      <point x="431" y="-9"/>
      <point x="510" y="70"/>
      <point x="510" y="168" type="curve" smooth="yes"/>
      <point x="510" y="266"/>
      <point x="431" y="345"/>
      <point x="333" y="345" type="curve" smooth="yes"/>
      <point x="235" y="345"/>
      <point x="156" y="266"/>
      <point x="156" y="168" type="curve" smooth="yes"/>
      <point x="156" y="70"/>
      <point x="235" y="-9"/>
    </contour>
    <contour>
      <point x="286" y="461" type="line"/>
      <point x="383" y="461" type="line"/>
      <point x="507" y="1575" type="line"/>
      <point x="164" y="1575" type="line"/>
    </contour>
  </outline>
</glyph>
<glyph name="quotedbl" format="1">
  <advance width="944"/>
  <unicode hex="0022"/>
  <outline>
    <contour>
      <point x="186" y="1011" type="line"/>
      <point x="344" y="1011" type="line"/>
      <point x="391" y="1575" type="line"/>
      <point x="140" y="1575" type="line"/>
    </contour>
    <contour>
      <point x="600" y="1011" type="line"/>
      <point x="758" y="1011" type="line"/>
      <point x="805" y="1575" type="line"/>
      <point x="554" y="1575" type="line"/>
    </contour>
  </outline>
</glyph>
<glyph name="numbersign" format="1">
  <advance width="1504"/>
  <unicode hex="0023"/>
  <outline>
    <contour>
      <point x="275" y="41" type="line"/>
      <point x="452" y="41" type="line"/>
      <point x="542" y="457" type="line"/>
      <point x="854" y="457" type="line"/>
      <point x="765" y="41" type="line"/>
      <point x="938" y="41" type="line"/>
      <point x="1029" y="457" type="line"/>
      <point x="1345" y="457" type="line"/>
      <point x="1345" y="594" type="line"/>
      <point x="1060" y="594" type="line"/>
      <point x="1161" y="1030" type="line"/>
      <point x="1426" y="1030" type="line"/>
      <point x="1426" y="1162" type="line"/>
      <point x="1193" y="1162" type="line"/>
      <point x="1271" y="1522" type="line"/>
      <point x="1093" y="1522" type="line"/>
      <point x="1015" y="1162" type="line"/>
      <point x="706" y="1162" type="line"/>
      <point x="783" y="1522" type="line"/>
      <point x="604" y="1522" type="line"/>
      <point x="526" y="1162" type="line"/>
      <point x="201" y="1162" type="line"/>
      <point x="201" y="1030" type="line"/>
      <point x="496" y="1030" type="line"/>
      <point x="396" y="594" type="line"/>
      <point x="108" y="594" type="line"/>
      <point x="108" y="457" type="line"/>
      <point x="365" y="457" type="line"/>
    </contour>
    <contour>
      <point x="573" y="592" type="line"/>
      <point x="674" y="1032" type="line"/>
      <point x="988" y="1032" type="line"/>
      <point x="888" y="592" type="line"/>
    </contour>
  </outline>
</glyph>
<glyph name="dollar" format="1">
  <advance width="1244"/>
  <unicode hex="0024"/>
  <outline>
    <contour>
      <point x="578" y="-178" type="line"/>
      <point x="705" y="-178" type="line"/>
      <point x="705" y="-15" type="line"/>
      <point x="997" y="17"/>
      <point x="1198" y="163"/>
      <point x="1198" y="420" type="curve" smooth="yes"/>
      <point x="1198" y="682"/>
      <point x="1084" y="784"/>
      <point x="705" y="889" type="curve"/>
      <point x="705" y="1406" type="line"/>
      <point x="839" y="1402"/>
      <point x="978" y="1364"/>
      <point x="1096" y="1288" type="curve"/>
      <point x="1127" y="1288" type="line"/>
      <point x="1153" y="1472" type="line"/>
      <point x="1030" y="1541"/>
      <point x="869" y="1589"/>
      <point x="705" y="1598" type="curve"/>
      <point x="705" y="1732" type="line"/>
      <point x="578" y="1732" type="line"/>
      <point x="578" y="1596" type="line"/>
      <point x="282" y="1570"/>
      <point x="80" y="1406"/>
      <point x="80" y="1142" type="curve" smooth="yes"/>
      <point x="80" y="882"/>
      <point x="227" y="776"/>
      <point x="578" y="695" type="curve"/>
      <point x="578" y="169" type="line"/>
      <point x="428" y="172"/>
      <point x="227" y="219"/>
      <point x="108" y="341" type="curve"/>
      <point x="76" y="341" type="line"/>
      <point x="42" y="134" type="line"/>
      <point x="183" y="41"/>
      <point x="356" y="-19"/>
      <point x="578" y="-21" type="curve"/>
    </contour>
    <contour>
      <point x="711" y="178" type="curve" smooth="yes"/>
      <point x="705" y="177" type="line"/>
      <point x="705" y="663" type="line"/>
      <point x="916" y="601"/>
      <point x="967" y="520"/>
      <point x="967" y="404" type="curve" smooth="yes"/>
      <point x="967" y="307"/>
      <point x="889" y="208"/>
    </contour>
    <contour>
      <point x="578" y="920" type="line"/>
      <point x="380" y="968"/>
      <point x="308" y="1043"/>
      <point x="308" y="1149" type="curve" smooth="yes"/>
      <point x="308" y="1268"/>
      <point x="404" y="1372"/>
      <point x="578" y="1400" type="curve"/>
    </contour>
  </outline>
</glyph>
<glyph name="parenleft" format="1">
  <advance width="841"/>
  <unicode hex="0028"/>
  <outline>
    <contour>
      <point x="505" y="-340" type="curve"/>
      <point x="743" y="-340" type="line"/>
      <point x="737" y="-319"/>
      <point x="743" y="-300"/>
      <point x="739" y="-278" type="curve"/>
      <point x="566" y="-82"/>
      <point x="389" y="213"/>
      <point x="389" y="592" type="curve" smooth="yes"/>
      <point x="389" y="966"/>
      <point x="556" y="1257"/>
      <point x="739" y="1461" type="curve"/>
      <point x="743" y="1482"/>
      <point x="737" y="1503"/>
      <point x="743" y="1523" type="curve"/>
      <point x="505" y="1523" type="line"/>
      <point x="281" y="1268"/>
      <point x="133" y="970"/>
      <point x="133" y="592" type="curve" smooth="yes"/>
      <point x="133" y="188"/>
      <point x="280" y="-86"/>
    </contour>
  </outline>
</glyph>
<glyph name="parenright" format="1">
  <advance width="841"/>
  <unicode hex="0029"/>
  <outline>
    <contour>
      <point x="133" y="-340" type="curve"/>
      <point x="371" y="-340" type="line"/>
      <point x="595" y="-85"/>
      <point x="743" y="213"/>
      <point x="743" y="591" type="curve" smooth="yes"/>
      <point x="743" y="995"/>
      <point x="596" y="1269"/>
      <point x="371" y="1523" type="curve"/>
      <point x="133" y="1523" type="line"/>
      <point x="139" y="1502"/>
      <point x="133" y="1483"/>
      <point x="137" y="1461" type="curve"/>
      <point x="310" y="1265"/>
      <point x="487" y="970"/>
      <point x="487" y="591" type="curve" smooth="yes"/>
      <point x="487" y="217"/>
      <point x="320" y="-74"/>
      <point x="137" y="-278" type="curve"/>
      <point x="133" y="-299"/>
      <point x="139" y="-320"/>
    </contour>
  </outline>
</glyph>
<glyph name="asterisk" format="1">
  <advance width="1168"/>
  <unicode hex="002A"/>
  <outline>
    <contour>
      <point x="538" y="629" type="curve"/>
      <point x="596" y="629"/>
      <point x="655" y="658"/>
      <point x="670" y="713" type="curve"/>
      <point x="670" y="809"/>
      <point x="625" y="928"/>
      <point x="608" y="1023" type="curve"/>
      <point x="673" y="967"/>
      <point x="747" y="868"/>
      <point x="820" y="824" type="curve" smooth="yes"/>
      <point x="842" y="811"/>
      <point x="864" y="803"/>
      <point x="887" y="801" type="curve"/>
      <point x="936" y="814"/>
      <point x="981" y="863"/>
      <point x="992" y="918" type="curve"/>
      <point x="983" y="1047"/>
      <point x="767" y="1051"/>
      <point x="648" y="1105" type="curve"/>
      <point x="766" y="1157"/>
      <point x="986" y="1168"/>
      <point x="992" y="1293" type="curve"/>
      <point x="981" y="1346"/>
      <point x="937" y="1395"/>
      <point x="887" y="1409" type="curve"/>
      <point x="794" y="1402"/>
      <point x="701" y="1271"/>
      <point x="624" y="1198" type="curve" smooth="yes"/>
      <point x="617" y="1192"/>
      <point x="611" y="1189"/>
      <point x="606" y="1185" type="curve"/>
      <point x="622" y="1275"/>
      <point x="669" y="1381"/>
      <point x="669" y="1471" type="curve" smooth="yes"/>
      <point x="669" y="1534"/>
      <point x="626" y="1572"/>
      <point x="583" y="1581" type="curve"/>
      <point x="525" y="1581"/>
      <point x="468" y="1553"/>
      <point x="453" y="1498" type="curve"/>
      <point x="453" y="1398"/>
      <point x="504" y="1285"/>
      <point x="515" y="1184" type="curve"/>
      <point x="446" y="1239"/>
      <point x="375" y="1339"/>
      <point x="301" y="1384" type="curve" smooth="yes"/>
      <point x="279" y="1398"/>
      <point x="256" y="1407"/>
      <point x="233" y="1409" type="curve"/>
      <point x="183" y="1395"/>
      <point x="140" y="1346"/>
      <point x="129" y="1293" type="curve"/>
      <point x="135" y="1167"/>
      <point x="350" y="1157"/>
      <point x="473" y="1105" type="curve"/>
      <point x="353" y="1054"/>
      <point x="138" y="1045"/>
      <point x="129" y="918" type="curve"/>
      <point x="140" y="863"/>
      <point x="184" y="814"/>
      <point x="234" y="801" type="curve"/>
      <point x="323" y="808"/>
      <point x="419" y="936"/>
      <point x="496" y="1010" type="curve" smooth="yes"/>
      <point x="503" y="1016"/>
      <point x="509" y="1020"/>
      <point x="513" y="1024" type="curve"/>
      <point x="499" y="936"/>
      <point x="452" y="829"/>
      <point x="452" y="740" type="curve" smooth="yes"/>
      <point x="452" y="676"/>
      <point x="495" y="638"/>
    </contour>
  </outline>
</glyph>
<glyph name="period" format="1">
  <advance width="723"/>
  <unicode hex="002E"/>
  <outline>
    <contour>
      <point x="353" y="-9" type="curve" smooth="yes"/>
      <point x="451" y="-9"/>
      <point x="530" y="70"/>
      <point x="530" y="168" type="curve" smooth="yes"/>
      <point x="530" y="266"/>
      <point x="451" y="345"/>
      <point x="353" y="345" type="curve" smooth="yes"/>
      <point x="255" y="345"/>
      <point x="176" y="266"/>
      <point x="176" y="168" type="curve" smooth="yes"/>
      <point x="176" y="70"/>
      <point x="255" y="-9"/>
    </contour>
  </outline>
</glyph>
<glyph name="four" format="1">
  <advance width="1246"/>
  <unicode hex="0034"/>
  <outline>
    <contour>
      <point x="963" y="0" type="line"/>
      <point x="963" y="232" type="line"/>
      <point x="1129" y="232" type="line"/>
      <point x="1129" y="429" type="line"/>
      <point x="963" y="429" type="line"/>
      <point x="963" y="1575" type="line"/>
      <point x="633" y="1575" type="line"/>
      <point x="55" y="429" type="line"/>
      <point x="55" y="232" type="line"/>
      <point x="754" y="232" type="line"/>
      <point x="754" y="0" type="line"/>
    </contour>
    <contour>
      <point x="282" y="429" type="line"/>
      <point x="754" y="1402" type="line"/>
      <point x="754" y="429" type="line"/>
    </contour>
  </outline>
</glyph>
<glyph name="six" format="1">
  <advance width="1244"/>
  <unicode hex="0036"/>
  <outline>
    <contour>
      <point x="637" y="-24" type="curve" smooth="yes"/>
      <point x="967" y="-24"/>
      <point x="1185" y="171"/>
      <point x="1185" y="495" type="curve" smooth="yes"/>
      <point x="1185" y="801"/>
      <point x="956" y="968"/>
      <point x="702" y="968" type="curve" smooth="yes"/>
      <point x="607" y="968"/>
      <point x="440" y="924"/>
      <point x="360" y="823" type="curve"/>
      <point x="427" y="1141"/>
      <point x="624" y="1367"/>
      <point x="991" y="1397" type="curve"/>
      <point x="952" y="1576" type="line"/>
      <point x="390" y="1572"/>
      <point x="88" y="1080"/>
      <point x="88" y="557" type="curve" smooth="yes"/>
      <point x="88" y="186"/>
      <point x="302" y="-24"/>
    </contour>
    <contour>
      <point x="626" y="168" type="curve" smooth="yes"/>
      <point x="452" y="168"/>
      <point x="341" y="303"/>
      <point x="341" y="458" type="curve" smooth="yes"/>
      <point x="341" y="585"/>
      <point x="410" y="772"/>
      <point x="646" y="774" type="curve"/>
      <point x="815" y="774"/>
      <point x="938" y="651"/>
      <point x="938" y="492" type="curve" smooth="yes"/>
      <point x="938" y="309"/>
      <point x="853" y="168"/>
    </contour>
  </outline>
</glyph>
<glyph name="seven" format="1">
  <advance width="1245"/>
  <unicode hex="0037"/>
  <outline>
    <contour>
      <point x="278" y="0" type="line"/>
      <point x="544" y="0" type="line"/>
      <point x="1136" y="1388" type="line"/>
      <point x="1136" y="1575" type="line"/>
      <point x="138" y="1575" type="line"/>
      <point x="138" y="1215" type="line"/>
      <point x="362" y="1215" type="line"/>
      <point x="362" y="1383" type="line"/>
      <point x="873" y="1383" type="line"/>
    </contour>
  </outline>
</glyph>
<glyph name="eight" format="1">
  <advance width="1432"/>
  <unicode hex="0038"/>
  <outline>
    <contour>
      <point x="715" y="-25" type="curve" smooth="yes"/>
      <point x="1078" y="-25"/>
      <point x="1296" y="173"/>
      <point x="1296" y="447" type="curve" smooth="yes"/>
      <point x="1296" y="622"/>
      <point x="1156" y="751"/>
      <point x="978" y="835" type="curve"/>
      <point x="1183" y="948"/>
      <point x="1254" y="1114"/>
      <point x="1254" y="1235" type="curve" smooth="yes"/>
      <point x="1254" y="1440"/>
      <point x="1060" y="1598"/>
      <point x="718" y="1598" type="curve" smooth="yes"/>
      <point x="391" y="1598"/>
      <point x="179" y="1428"/>
      <point x="179" y="1221" type="curve" smooth="yes"/>
      <point x="179" y="1092"/>
      <point x="256" y="954"/>
      <point x="496" y="830" type="curve"/>
      <point x="324" y="746"/>
      <point x="135" y="624"/>
      <point x="135" y="406" type="curve" smooth="yes"/>
      <point x="135" y="185"/>
      <point x="345" y="-25"/>
    </contour>
    <contour>
      <point x="727" y="163" type="curve" smooth="yes"/>
      <point x="496" y="163"/>
      <point x="380" y="273"/>
      <point x="380" y="435" type="curve" smooth="yes"/>
      <point x="380" y="603"/>
      <point x="576" y="711"/>
      <point x="650" y="750" type="curve"/>
      <point x="946" y="664"/>
      <point x="1041" y="528"/>
      <point x="1041" y="413" type="curve" smooth="yes"/>
      <point x="1041" y="295"/>
      <point x="953" y="163"/>
    </contour>
    <contour>
      <point x="826" y="906" type="curve"/>
      <point x="650" y="967"/>
      <point x="434" y="1087"/>
      <point x="434" y="1218" type="curve" smooth="yes"/>
      <point x="434" y="1387"/>
      <point x="632" y="1414"/>
      <point x="728" y="1414" type="curve" smooth="yes"/>
      <point x="889" y="1414"/>
      <point x="1019" y="1343"/>
      <point x="1019" y="1214" type="curve" smooth="yes"/>
      <point x="1019" y="1048.63"/>
      <point x="875.497" y="947.247"/>
    </contour>
  </outline>
</glyph>
<glyph name="nine" format="1">
  <advance width="1244"/>
  <unicode hex="0039"/>
  <outline>
    <contour>
      <point x="340" y="-28" type="line"/>
      <point x="902" y="-24"/>
      <point x="1204" y="468"/>
      <point x="1204" y="991" type="curve" smooth="yes"/>
      <point x="1204" y="1362"/>
      <point x="990" y="1572"/>
      <point x="655" y="1572" type="curve" smooth="yes"/>
      <point x="325" y="1572"/>
      <point x="107" y="1377"/>
      <point x="107" y="1053" type="curve" smooth="yes"/>
      <point x="107" y="747"/>
      <point x="336" y="580"/>
      <point x="590" y="580" type="curve" smooth="yes"/>
      <point x="685" y="580"/>
      <point x="852" y="624"/>
      <point x="932" y="725" type="curve"/>
      <point x="865" y="407"/>
      <point x="668" y="181"/>
      <point x="301" y="151" type="curve"/>
    </contour>
    <contour>
      <point x="646" y="774" type="curve"/>
      <point x="477" y="774"/>
      <point x="354" y="897"/>
      <point x="354" y="1056" type="curve" smooth="yes"/>
      <point x="354" y="1239"/>
      <point x="439" y="1380"/>
      <point x="666" y="1380" type="curve" smooth="yes"/>
      <point x="840" y="1380"/>
      <point x="951" y="1245"/>
      <point x="951" y="1090" type="curve" smooth="yes"/>
      <point x="951" y="963"/>
      <point x="882" y="776"/>
    </contour>
  </outline>
</glyph>
<glyph name="equal" format="1">
  <advance width="1590"/>
  <unicode hex="003D"/>
  <outline>
    <contour>
      <point x="181" y="750" type="line"/>
      <point x="1411" y="750" type="line"/>
      <point x="1411" y="978" type="line"/>
      <point x="181" y="978" type="line"/>
    </contour>
    <contour>
      <point x="181" y="243" type="line"/>
      <point x="1411" y="243" type="line"/>
      <point x="1411" y="471" type="line"/>
      <point x="181" y="471" type="line"/>
    </contour>
  </outline>
</glyph>
<glyph name="question" format="1">
  <advance width="1149"/>
  <unicode hex="003F"/>
  <outline>
    <contour>
      <point x="403" y="539" type="curve"/>
      <point x="528" y="539" type="line"/>
      <point x="731" y="723"/>
      <point x="1010" y="931"/>
      <point x="1010" y="1210" type="curve" smooth="yes"/>
      <point x="1010" y="1423"/>
      <point x="880" y="1599"/>
      <point x="576" y="1599" type="curve" smooth="yes"/>
      <point x="383" y="1599"/>
      <point x="219" y="1507"/>
      <point x="154" y="1469" type="curve"/>
      <point x="154" y="1267" type="line"/>
      <point x="248" y="1340"/>
      <point x="377" y="1406"/>
      <point x="516" y="1406" type="curve" smooth="yes"/>
      <point x="693" y="1406"/>
      <point x="776" y="1298"/>
      <point x="776" y="1158" type="curve" smooth="yes"/>
      <point x="776" y="1010"/>
      <point x="554" y="739"/>
    </contour>
    <contour>
      <point x="463" y="-9" type="curve" smooth="yes"/>
      <point x="561" y="-9"/>
      <point x="640" y="70"/>
      <point x="640" y="168" type="curve" smooth="yes"/>
      <point x="640" y="266"/>
      <point x="561" y="345"/>
      <point x="463" y="345" type="curve" smooth="yes"/>
      <point x="365" y="345"/>
      <point x="286" y="266"/>
      <point x="286" y="168" type="curve" smooth="yes"/>
      <point x="286" y="70"/>
      <point x="365" y="-9"/>
    </contour>
  </outline>
</glyph>
<glyph name="E" format="1">
  <advance width="1160"/>
  <unicode hex="0045"/>
  <outline>
    <contour>
      <point x="155" y="0" type="line"/>
      <point x="1061" y="0" type="line"/>
      <point x="1061" y="192" type="line"/>
      <point x="411" y="192" type="line"/>
      <point x="411" y="740" type="line"/>
      <point x="976" y="740" type="line"/>
      <point x="976" y="932" type="line"/>
      <point x="411" y="932" type="line"/>
      <point x="411" y="1384" type="line"/>
      <point x="1062" y="1384" type="line"/>
      <point x="1062" y="1575" type="line"/>
      <point x="155" y="1575" type="line"/>
    </contour>
    <contour>
      <point x="573" y="1575" type="move" name="top"/>
    </contour>
    <contour>
      <point x="573" y="0" type="move" name="bottom"/>
    </contour>
    <contour>
      <point x="1078" y="10" type="move" name="ogonek"/>
    </contour>
  </outline>
</glyph>
<glyph name="G" format="1">
  <advance width="1502"/>
  <unicode hex="0047"/>
  <outline>
    <contour>
      <point x="837" y="-24" type="curve" smooth="yes"/>
      <point x="1079" y="-24"/>
      <point x="1262" y="46"/>
      <point x="1403" y="150" type="curve"/>
      <point x="1403" y="884" type="line"/>
      <point x="783" y="884" type="line"/>
      <point x="783" y="674" type="line"/>
      <point x="1172" y="674" type="line"/>
      <point x="1172" y="258" type="line"/>
      <point x="1149" y="242"/>
      <point x="1027" y="169"/>
      <point x="869" y="169" type="curve" smooth="yes"/>
      <point x="517" y="169"/>
      <point x="361" y="358"/>
      <point x="361" y="793" type="curve" smooth="yes"/>
      <point x="361" y="1218"/>
      <point x="519" y="1405"/>
      <point x="852" y="1405" type="curve" smooth="yes"/>
      <point x="1092" y="1405"/>
      <point x="1266" y="1281"/>
      <point x="1265" y="1279" type="curve" smooth="yes"/>
      <point x="1318" y="1464" type="line"/>
      <point x="1259" y="1504"/>
      <point x="1089" y="1599"/>
      <point x="856" y="1599" type="curve" smooth="yes"/>
      <point x="363" y="1599"/>
      <point x="105" y="1313"/>
      <point x="105" y="789" type="curve" smooth="yes"/>
      <point x="105" y="287"/>
      <point x="318" y="-24"/>
    </contour>
    <contour>
      <point x="726" y="1575" type="move" name="top"/>
    </contour>
    <contour>
      <point x="726" y="0" type="move" name="bottom"/>
    </contour>
  </outline>
</glyph>
<glyph name="I" format="1">
  <advance width="888"/>
  <unicode hex="0049"/>
  <outline>
    <contour>
      <point x="90" y="0" type="line"/>
      <point x="780" y="0" type="line"/>
      <point x="780" y="192" type="line"/>
      <point x="563" y="192" type="line"/>
      <point x="563" y="1383" type="line"/>
      <point x="780" y="1383" type="line"/>
      <point x="780" y="1575" type="line"/>
      <point x="90" y="1575" type="line"/>
      <point x="90" y="1383" type="line"/>
      <point x="307" y="1383" type="line"/>
      <point x="307" y="192" type="line"/>
      <point x="90" y="192" type="line"/>
    </contour>
    <contour>
      <point x="435" y="1575" type="move" name="top"/>
    </contour>
    <contour>
      <point x="798" y="10" type="move" name="ogonek"/>
    </contour>
  </outline>
</glyph>
<glyph name="K" format="1">
  <advance width="1405"/>
  <unicode hex="004B"/>
  <outline>
    <contour>
      <point x="155" y="0" type="line"/>
      <point x="411" y="0" type="line"/>
      <point x="411" y="487" type="line"/>
      <point x="656" y="757" type="line"/>
      <point x="727" y="635" type="line"/>
      <point x="826" y="467"/>
      <point x="999" y="169"/>
      <point x="1097" y="0" type="curve"/>
      <point x="1404" y="0" type="line"/>
      <point x="836" y="922" type="line"/>
      <point x="1375" y="1575" type="line"/>
      <point x="1052" y="1575" type="line"/>
      <point x="1052" y="1575"/>
      <point x="720" y="1161"/>
      <point x="669" y="1095" type="curve"/>
      <point x="412" y="793" type="line"/>
      <point x="411" y="793" type="line"/>
      <point x="411" y="1575" type="line"/>
      <point x="155" y="1575" type="line"/>
    </contour>
    <contour>
      <point x="647" y="1575" type="move" name="top"/>
    </contour>
    <contour>
      <point x="647" y="0" type="move" name="bottom"/>
    </contour>
  </outline>
</glyph>
<glyph name="R" format="1">
  <advance width="1414"/>
  <unicode hex="0052"/>
  <outline>
    <contour>
      <point x="155" y="0" type="line"/>
      <point x="411" y="0" type="line"/>
      <point x="411" y="688" type="line"/>
      <point x="736" y="688" type="line"/>
      <point x="1102" y="0" type="line"/>
      <point x="1360" y="0" type="line"/>
      <point x="1360" y="57" type="line"/>
      <point x="986" y="720" type="line"/>
      <point x="1215" y="799"/>
      <point x="1285" y="932"/>
      <point x="1285" y="1151" type="curve" smooth="yes"/>
      <point x="1285" y="1527"/>
      <point x="933" y="1575"/>
      <point x="710" y="1575" type="curve" smooth="yes"/>
      <point x="155" y="1575" type="line"/>
    </contour>
    <contour>
      <point x="411" y="880" type="line"/>
      <point x="411" y="1383" type="line"/>
      <point x="715" y="1383" type="line" smooth="yes"/>
      <point x="952" y="1383"/>
      <point x="1029" y="1283"/>
      <point x="1029" y="1128" type="curve" smooth="yes"/>
      <point x="1029" y="957"/>
      <point x="920" y="880"/>
      <point x="711" y="880" type="curve" smooth="yes"/>
    </contour>
    <contour>
      <point x="707" y="1575" type="move" name="top"/>
    </contour>
    <contour>
      <point x="707" y="0" type="move" name="bottom"/>
    </contour>
  </outline>
</glyph>
<glyph name="S" format="1">
  <advance width="1305"/>
  <unicode hex="0053"/>
  <outline>
    <contour>
      <point x="603" y="-21" type="curve" smooth="yes"/>
      <point x="951" y="-21"/>
      <point x="1220" y="144"/>
      <point x="1220" y="433" type="curve" smooth="yes"/>
      <point x="1220" y="712"/>
      <point x="1082" y="808"/>
      <point x="636" y="914" type="curve"/>
      <point x="402.812" y="963.147"/>
      <point x="319" y="1034.56"/>
      <point x="319" y="1149" type="curve" smooth="yes"/>
      <point x="319" y="1289"/>
      <point x="436" y="1407"/>
      <point x="672" y="1407" type="curve" smooth="yes"/>
      <point x="815" y="1407"/>
      <point x="980" y="1359"/>
      <point x="1107" y="1277" type="curve"/>
      <point x="1138" y="1277" type="line"/>
      <point x="1164" y="1472" type="line"/>
      <point x="1028" y="1548"/>
      <point x="847" y="1599"/>
      <point x="665" y="1599" type="curve" smooth="yes"/>
      <point x="329" y="1599"/>
      <point x="86" y="1418"/>
      <point x="86" y="1132" type="curve" smooth="yes"/>
      <point x="86" y="865"/>
      <point x="246" y="771"/>
      <point x="616" y="689" type="curve" smooth="yes"/>
      <point x="915" y="623"/>
      <point x="966" y="536"/>
      <point x="966" y="404" type="curve" smooth="yes"/>
      <point x="966" y="288"/>
      <point x="878" y="167"/>
      <point x="610" y="167" type="curve" smooth="yes"/>
      <point x="459" y="167"/>
      <point x="242" y="215"/>
      <point x="119" y="341" type="curve"/>
      <point x="87" y="341" type="line"/>
      <point x="53" y="134" type="line"/>
      <point x="197" y="39"/>
      <point x="374" y="-21"/>
    </contour>
    <contour>
      <point x="682" y="1575" type="move" name="top"/>
    </contour>
    <contour>
      <point x="682" y="0" type="move" name="bottom"/>
    </contour>
  </outline>
</glyph>
<glyph name="U" format="1">
  <advance width="1449"/>
  <unicode hex="0055"/>
  <outline>
    <contour>
      <point x="718.5" y="-24" type="curve" smooth="yes"/>
      <point x="1113.5" y="-24"/>
      <point x="1305" y="177"/>
      <point x="1305" y="506" type="curve" smooth="yes"/>
      <point x="1305" y="1575" type="line"/>
      <point x="1049" y="1575" type="line"/>
      <point x="1049" y="498" type="line" smooth="yes"/>
      <point x="1049" y="249"/>
      <point x="930" y="168"/>
      <point x="719" y="168" type="curve" smooth="yes"/>
      <point x="505" y="168"/>
      <point x="388" y="249"/>
      <point x="388" y="497" type="curve" smooth="yes"/>
      <point x="388" y="1575" type="line"/>
      <point x="132" y="1575" type="line"/>
      <point x="132" y="505" type="line" smooth="yes"/>
      <point x="132" y="170"/>
      <point x="339.5" y="-24"/>
    </contour>
    <contour>
      <point x="718" y="1575" type="move" name="top"/>
    </contour>
    <contour>
      <point x="1317" y="10" type="move" name="ogonek"/>
    </contour>
  </outline>
</glyph>
<glyph name="Y" format="1">
  <advance width="1395"/>
  <unicode hex="0059"/>
  <outline>
    <contour>
      <point x="565" y="0" type="line"/>
      <point x="821" y="0" type="line"/>
      <point x="821" y="713" type="line"/>
      <point x="1446" y="1575" type="line"/>
      <point x="1156" y="1575" type="line"/>
      <point x="701" y="907" type="line"/>
      <point x="242" y="1575" type="line"/>
      <point x="-51" y="1575" type="line"/>
      <point x="565" y="700" type="line"/>
    </contour>
    <contour>
      <point x="667" y="1575" type="move" name="top"/>
    </contour>
  </outline>
</glyph>
<glyph name="backslash" format="1">
  <advance width="1126"/>
  <unicode hex="005C"/>
  <outline>
    <contour>
      <point x="177" y="1527" type="line"/>
      <point x="721" y="-218" type="line"/>
      <point x="1006" y="-218" type="line"/>
      <point x="464" y="1527" type="line"/>
    </contour>
  </outline>
</glyph>
<glyph name="asciicircum" format="1">
  <advance width="1589"/>
  <unicode hex="005E"/>
  <outline>
    <contour>
      <point x="150" y="637" type="line"/>
      <point x="457" y="637" type="line"/>
      <point x="780" y="1212" type="line"/>
      <point x="1132" y="639" type="line"/>
      <point x="1439" y="639" type="line"/>
      <point x="903" y="1479" type="line"/>
      <point x="657" y="1479" type="line"/>
    </contour>
  </outline>
</glyph>
<glyph name="a" format="1">
  <advance width="1137"/>
  <unicode hex="0061"/>
  <outline>
    <contour>
      <point x="420" y="-24" type="curve" smooth="yes"/>
      <point x="610.011" y="-24"/>
      <point x="742" y="88"/>
      <point x="774" y="172" type="curve"/>
      <point x="776" y="0" type="line"/>
      <point x="1032" y="0" type="line"/>
      <point x="1032" y="699" type="line" smooth="yes"/>
      <point x="1032" y="956"/>
      <point x="938" y="1126"/>
      <point x="557" y="1126" type="curve" smooth="yes"/>
      <point x="391" y="1126"/>
      <point x="212" y="1083"/>
      <point x="141" y="1032" type="curve"/>
      <point x="200" y="860" type="line"/>
      <point x="307" y="902"/>
      <point x="434" y="933"/>
      <point x="541" y="933" type="curve" smooth="yes"/>
      <point x="720" y="933"/>
      <point x="776" y="856"/>
      <point x="776" y="686" type="curve"/>
      <point x="398" y="686"/>
      <point x="70" y="640"/>
      <point x="70" y="307" type="curve" smooth="yes"/>
      <point x="70" y="118"/>
      <point x="214" y="-24"/>
    </contour>
    <contour>
      <point x="488" y="163" type="curve" smooth="yes"/>
      <point x="395" y="163"/>
      <point x="312" y="208"/>
      <point x="312" y="332" type="curve" smooth="yes"/>
      <point x="312" y="472"/>
      <point x="461" y="521"/>
      <point x="776" y="534" type="curve"/>
      <point x="776" y="291"/>
      <point x="677" y="163"/>
    </contour>
    <contour>
      <point x="569" y="1098" type="move" name="top"/>
    </contour>
    <contour>
      <point x="1023" y="10" type="move" name="ogonek"/>
    </contour>
  </outline>
</glyph>
<glyph name="b" format="1">
  <advance width="1227"/>
  <unicode hex="0062"/>
  <outline>
    <contour>
      <point x="668" y="-29" type="curve" smooth="yes"/>
      <point x="965" y="-29"/>
      <point x="1142" y="199"/>
      <point x="1142" y="570" type="curve" smooth="yes"/>
      <point x="1142" y="914"/>
      <point x="967" y="1122"/>
      <point x="702" y="1122" type="curve" smooth="yes"/>
      <point x="582" y="1122"/>
      <point x="450" y="1084"/>
      <point x="378" y="989" type="curve"/>
      <point x="378" y="1521" type="line"/>
      <point x="122" y="1521" type="line"/>
      <point x="122" y="0" type="line"/>
      <point x="378" y="0" type="line"/>
      <point x="378" y="88" type="line"/>
      <point x="430" y="21"/>
      <point x="541" y="-29"/>
    </contour>
    <contour>
      <point x="621" y="165" type="curve" smooth="yes"/>
      <point x="550" y="165"/>
      <point x="444" y="189"/>
      <point x="378" y="230" type="curve"/>
      <point x="378" y="870" type="line"/>
      <point x="418" y="905"/>
      <point x="527" y="930"/>
      <point x="600" y="930" type="curve" smooth="yes"/>
      <point x="752" y="930"/>
      <point x="886" y="821"/>
      <point x="886" y="567" type="curve" smooth="yes"/>
      <point x="886" y="334"/>
      <point x="800" y="165"/>
    </contour>
  </outline>
</glyph>
<glyph name="c" format="1">
  <advance width="1084"/>
  <unicode hex="0063"/>
  <outline>
    <contour>
      <point x="656" y="-25" type="curve" smooth="yes"/>
      <point x="808" y="-25"/>
      <point x="912" y="13"/>
      <point x="1026" y="75" type="curve"/>
      <point x="984" y="272" type="line"/>
      <point x="914" y="224"/>
      <point x="824" y="169"/>
      <point x="667" y="169" type="curve" smooth="yes"/>
      <point x="445" y="169"/>
      <point x="334" y="295"/>
      <point x="334" y="545" type="curve" smooth="yes"/>
      <point x="334" y="811.934"/>
      <point x="481.69" y="934"/>
      <point x="677" y="934" type="curve" smooth="yes"/>
      <point x="788" y="934"/>
      <point x="904" y="890"/>
      <point x="989" y="824" type="curve"/>
      <point x="1030" y="1021" type="line"/>
      <point x="889" y="1100"/>
      <point x="777" y="1122"/>
      <point x="646" y="1122" type="curve" smooth="yes"/>
      <point x="353" y="1122"/>
      <point x="85" y="963"/>
      <point x="85" y="546" type="curve" smooth="yes"/>
      <point x="85" y="151"/>
      <point x="331" y="-25"/>
    </contour>
    <contour>
      <point x="543" y="1098" type="move" name="top"/>
    </contour>
    <contour>
      <point x="543" y="0" type="move" name="bottom"/>
    </contour>
  </outline>
</glyph>
<glyph name="d" format="1">
  <advance width="1219"/>
  <unicode hex="0064"/>
  <outline>
    <contour>
      <point x="529" y="-24" type="curve" smooth="yes"/>
      <point x="656" y="-24"/>
      <point x="797" y="44"/>
      <point x="841" y="112" type="curve"/>
      <point x="841" y="0" type="line"/>
      <point x="1097" y="0" type="line"/>
      <point x="1097" y="1521" type="line"/>
      <point x="841" y="1521" type="line"/>
      <point x="841" y="1022" type="line"/>
      <point x="794" y="1071"/>
      <point x="670" y="1126"/>
      <point x="553" y="1126" type="curve" smooth="yes"/>
      <point x="268" y="1126"/>
      <point x="85" y="927"/>
      <point x="85" y="550" type="curve" smooth="yes"/>
      <point x="85" y="213"/>
      <point x="235" y="-24"/>
    </contour>
    <contour>
      <point x="617" y="168" type="curve" smooth="yes"/>
      <point x="434" y="168"/>
      <point x="341" y="326"/>
      <point x="341" y="551" type="curve" smooth="yes"/>
      <point x="341" y="747"/>
      <point x="404" y="933"/>
      <point x="594" y="933" type="curve" smooth="yes"/>
      <point x="653" y="933"/>
      <point x="756" y="920"/>
      <point x="841" y="868" type="curve"/>
      <point x="841" y="229" type="line"/>
      <point x="782" y="178"/>
      <point x="663" y="168"/>
    </contour>
    <contour>
      <point x="612" y="549" type="move" name="center"/>
    </contour>
  </outline>
</glyph>
<glyph name="j" format="1">
  <advance width="588"/>
  <unicode hex="006A"/>
  <outline>
    <contour>
      <point x="110" y="-404" type="curve" smooth="yes"/>
      <point x="355" y="-404"/>
      <point x="448" y="-242"/>
      <point x="448" y="-9" type="curve" smooth="yes"/>
      <point x="448" y="1103" type="line"/>
      <point x="192" y="1103" type="line"/>
      <point x="192" y="19" type="line" smooth="yes"/>
      <point x="192" y="-197"/>
      <point x="124" y="-217"/>
      <point x="16" y="-217" type="curve" smooth="yes"/>
      <point x="-17" y="-217"/>
      <point x="-36" y="-216"/>
      <point x="-75" y="-212" type="curve"/>
      <point x="-75" y="-394" type="line"/>
      <point x="-41" y="-398"/>
      <point x="0" y="-404"/>
    </contour>
    <contour>
      <point x="310" y="1222" type="curve" smooth="yes"/>
      <point x="414" y="1222"/>
      <point x="466" y="1297"/>
      <point x="466" y="1371" type="curve" smooth="yes"/>
      <point x="466" y="1446"/>
      <point x="413" y="1521"/>
      <point x="310" y="1521" type="curve" smooth="yes"/>
      <point x="205" y="1521"/>
      <point x="153" y="1447"/>
      <point x="153" y="1371" type="curve" smooth="yes"/>
      <point x="153" y="1297"/>
      <point x="206" y="1222"/>
    </contour>
  </outline>
</glyph>
<glyph name="s" format="1">
  <advance width="1030"/>
  <unicode hex="0073"/>
  <outline>
    <contour>
      <point x="507" y="-25" type="curve" smooth="yes"/>
      <point x="811" y="-25"/>
      <point x="984" y="107"/>
      <point x="984" y="317" type="curve" smooth="yes"/>
      <point x="984" y="525"/>
      <point x="871" y="609"/>
      <point x="615" y="659" type="curve"/>
      <point x="398" y="706"/>
      <point x="324" y="721"/>
      <point x="324" y="807" type="curve" smooth="yes"/>
      <point x="324" y="889"/>
      <point x="404" y="931"/>
      <point x="512" y="931" type="curve" smooth="yes"/>
      <point x="663" y="931"/>
      <point x="840" y="878"/>
      <point x="887" y="852" type="curve"/>
      <point x="908" y="1039" type="line"/>
      <point x="804" y="1093"/>
      <point x="684" y="1125"/>
      <point x="508" y="1125" type="curve" smooth="yes"/>
      <point x="224" y="1125"/>
      <point x="81" y="994"/>
      <point x="81" y="795" type="curve" smooth="yes"/>
      <point x="81" y="583"/>
      <point x="279" y="513"/>
      <point x="497" y="471" type="curve" smooth="yes"/>
      <point x="729" y="426"/>
      <point x="753" y="392"/>
      <point x="753" y="317" type="curve" smooth="yes"/>
      <point x="753" y="230"/>
      <point x="647" y="178"/>
      <point x="502" y="178" type="curve" smooth="yes"/>
      <point x="314" y="178"/>
      <point x="187" y="243"/>
      <point x="118" y="283" type="curve"/>
      <point x="84" y="75" type="line"/>
      <point x="193" y="11"/>
      <point x="359" y="-25"/>
    </contour>
    <contour>
      <point x="517" y="1098" type="move" name="top"/>
    </contour>
    <contour>
      <point x="517" y="0" type="move" name="bottom"/>
    </contour>
  </outline>
</glyph>
<glyph name="w" format="1">
  <advance width="1758"/>
  <unicode hex="0077"/>
  <outline>
    <contour>
      <point x="352" y="0" type="line"/>
      <point x="648" y="0" type="line"/>
      <point x="878" y="809" type="line"/>
      <point x="880" y="809" type="line"/>
      <point x="1107" y="0" type="line"/>
      <point x="1404" y="0" type="line"/>
      <point x="1742" y="1098" type="line"/>
      <point x="1468" y="1098" type="line"/>
      <point x="1287" y="402" type="line"/>
      <point x="1250" y="260" type="line"/>
      <point x="1211" y="404" type="line"/>
      <point x="1023" y="1098" type="line"/>
      <point x="744" y="1098" type="line"/>
      <point x="557" y="400" type="line"/>
      <point x="517" y="252" type="line"/>
      <point x="516" y="252" type="line"/>
      <point x="476" y="404" type="line"/>
      <point x="296" y="1098" type="line"/>
      <point x="16" y="1098" type="line"/>
    </contour>
    <contour>
      <point x="879" y="1098" type="move" name="top"/>
    </contour>
  </outline>
</glyph>
<glyph name="x" format="1">
  <advance width="1190"/>
  <unicode hex="0078"/>
  <outline>
    <contour>
      <point x="13" y="0" type="line"/>
      <point x="301" y="0" type="line"/>
      <point x="541" y="310" type="line"/>
      <point x="596" y="382" type="line"/>
      <point x="653" y="309" type="line"/>
      <point x="892" y="0" type="line"/>
      <point x="1177" y="0" type="line"/>
      <point x="739" y="549" type="line"/>
      <point x="1177" y="1098" type="line"/>
      <point x="891" y="1098" type="line"/>
      <point x="656" y="796" type="line"/>
      <point x="596" y="719" type="line"/>
      <point x="530" y="805" type="line"/>
      <point x="302" y="1098" type="line"/>
      <point x="13" y="1098" type="line"/>
      <point x="452" y="549" type="line"/>
    </contour>
  </outline>
</glyph>
<glyph name="z" format="1">
  <advance width="1046"/>
  <unicode hex="007A"/>
  <outline>
    <contour>
      <point x="81" y="0" type="line"/>
      <point x="974" y="0" type="line"/>
      <point x="974" y="172" type="line"/>
      <point x="334" y="172" type="line"/>
      <point x="967" y="917" type="line"/>
      <point x="967" y="1098" type="line"/>
      <point x="109" y="1098" type="line"/>
      <point x="109" y="927" type="line"/>
      <point x="704" y="927" type="line"/>
      <point x="81" y="194" type="line"/>
    </contour>
    <contour>
      <point x="528" y="1098" type="move" name="top"/>
    </contour>
  </outline>
</glyph>
<glyph name="bar" format="1">
  <advance width="1169"/>
  <unicode hex="007C"/>
  <outline>
    <contour>
      <point x="468" y="-433" type="line"/>
      <point x="724" y="-433" type="line"/>
      <point x="724" y="1549" type="line"/>
      <point x="468" y="1549" type="line"/>
    </contour>
  </outline>
</glyph>
<glyph name="asciitilde" format="1">
  <advance width="1589"/>
  <unicode hex="007E"/>
  <outline>
    <contour>
      <point x="356" y="326" type="line"/>
      <point x="379.221" y="520.326"/>
      <point x="425.022" y="632.644"/>
      <point x="516.826" y="632.644" type="curve" smooth="yes"/>
      <point x="632.231" y="632.644"/>
      <point x="801.787" y="329"/>
      <point x="1073" y="329" type="curve" smooth="yes"/>
      <point x="1315" y="329"/>
      <point x="1451" y="506"/>
      <point x="1467" y="851" type="curve"/>
      <point x="1236" y="898" type="line"/>
      <point x="1214" y="740"/>
      <point x="1211" y="584"/>
      <point x="1070" y="584" type="curve" smooth="yes"/>
      <point x="867.172" y="584"/>
      <point x="726.999" y="896"/>
      <point x="511" y="896" type="curve" smooth="yes"/>
      <point x="283" y="896"/>
      <point x="143" y="725"/>
      <point x="127" y="372" type="curve"/>
    </contour>
  </outline>
</glyph>
<glyph name="section" format="1">
  <advance width="1249"/>
  <unicode hex="00A7"/>
  <outline>
    <contour>
      <point x="634.0" y="-171.0" type="curve" smooth="yes"/>
      <point x="938.0" y="-171.0"/>
      <point x="1111.0" y="-39.0"/>
      <point x="1111.0" y="171.0" type="curve" smooth="yes"/>
      <point x="1111.0" y="307.0"/>
      <point x="1063.0" y="390.0"/>
      <point x="958.0" y="445.0" type="curve"/>
      <point x="1057.0" y="504.0"/>
      <point x="1111.0" y="597.0"/>
      <point x="1111.0" y="714.0" type="curve" smooth="yes"/>
      <point x="1111.0" y="922.0"/>
      <point x="998.0" y="1006.0"/>
      <point x="742.0" y="1056.0" type="curve" smooth="yes"/>
      <point x="525.0" y="1103.0"/>
      <point x="451.0" y="1118.0"/>
      <point x="451.0" y="1204.0" type="curve" smooth="yes"/>
      <point x="451.0" y="1286.0"/>
      <point x="531.0" y="1328.0"/>
      <point x="639.0" y="1328.0" type="curve" smooth="yes"/>
      <point x="790.0" y="1328.0"/>
      <point x="967.0" y="1275.0"/>
      <point x="1014.0" y="1249.0" type="curve"/>
      <point x="1035.0" y="1436.0" type="line"/>
      <point x="931.0" y="1490.0"/>
      <point x="811.0" y="1522.0"/>
      <point x="635.0" y="1522.0" type="curve" smooth="yes"/>
      <point x="351.0" y="1522.0"/>
      <point x="208.0" y="1391.0"/>
      <point x="208.0" y="1192.0" type="curve" smooth="yes"/>
      <point x="208.0" y="1061.0"/>
      <point x="283.0" y="985.0"/>
      <point x="392.0" y="935.0" type="curve"/>
      <point x="270.0" y="881.0"/>
      <point x="208.0" y="780.0"/>
      <point x="208.0" y="649.0" type="curve" smooth="yes"/>
      <point x="208.0" y="437.0"/>
      <point x="406.0" y="367.0"/>
      <point x="624.0" y="325.0" type="curve" smooth="yes"/>
      <point x="856.0" y="280.0"/>
      <point x="880.0" y="246.0"/>
      <point x="880.0" y="171.0" type="curve" smooth="yes"/>
      <point x="880.0" y="84.0"/>
      <point x="774.0" y="32.0"/>
      <point x="629.0" y="32.0" type="curve" smooth="yes"/>
      <point x="441.0" y="32.0"/>
      <point x="314.0" y="97.0"/>
      <point x="245.0" y="137.0" type="curve"/>
      <point x="211.0" y="-71.0" type="line"/>
      <point x="320.0" y="-135.0"/>
      <point x="486.0" y="-171.0"/>
    </contour>
    <contour>
      <point x="769.0" y="508.0" type="line"/>
      <point x="760.0" y="509.0"/>
      <point x="751.0" y="511.0"/>
      <point x="742.0" y="513.0" type="curve" smooth="yes"/>
      <point x="525.0" y="560.0"/>
      <point x="441.0" y="578.0"/>
      <point x="441.0" y="691.0" type="curve" smooth="yes"/>
      <point x="441.0" y="766.0"/>
      <point x="483.0" y="843.0"/>
      <point x="573.0" y="878.0" type="curve"/>
      <point x="590.0" y="875.0"/>
      <point x="607.0" y="871.0"/>
      <point x="624.0" y="868.0" type="curve" smooth="yes"/>
      <point x="856.0" y="823.0"/>
      <point x="890.0" y="798.0"/>
      <point x="890.0" y="684.0" type="curve" smooth="yes"/>
      <point x="890.0" y="629.0"/>
      <point x="843.0" y="555.0"/>
      <point x="771.0" y="509.0" type="curve"/>
    </contour>
  </outline>
</glyph>
<glyph name="ordfeminine" format="1">
  <advance width="929"/>
  <unicode hex="00AA"/>
  <outline>
    <contour>
      <point x="410" y="698" type="curve" smooth="yes"/>
      <point x="512.04410811" y="698.0"/>
      <point x="606.470526228" y="746.470526228"/>
      <point x="671" y="811" type="curve"/>
      <point x="673" y="811" type="line"/>
      <point x="673" y="713" type="line"/>
      <point x="837" y="713" type="line"/>
      <point x="837" y="1213" type="line" smooth="yes"/>
      <point x="837" y="1412"/>
      <point x="766" y="1521"/>
      <point x="514" y="1521" type="curve" smooth="yes"/>
      <point x="386" y="1521"/>
      <point x="263" y="1494"/>
      <point x="186" y="1456" type="curve"/>
      <point x="223" y="1319" type="line"/>
      <point x="304" y="1355"/>
      <point x="396" y="1374"/>
      <point x="505" y="1374" type="curve" smooth="yes"/>
      <point x="638" y="1374"/>
      <point x="673" y="1335"/>
      <point x="673" y="1209" type="curve"/>
      <point x="359" y="1209"/>
      <point x="160" y="1138"/>
      <point x="160" y="935" type="curve" smooth="yes"/>
      <point x="160" y="765"/>
      <point x="284" y="698"/>
    </contour>
    <contour>
      <point x="443" y="836" type="curve" smooth="yes"/>
      <point x="356" y="836"/>
      <point x="331" y="891"/>
      <point x="331" y="948" type="curve" smooth="yes"/>
      <point x="331" y="1038"/>
      <point x="430" y="1085"/>
      <point x="673" y="1085" type="curve"/>
      <point x="673" y="938" type="line"/>
      <point x="651" y="898"/>
      <point x="548" y="836"/>
    </contour>
  </outline>
</glyph>
<glyph name="logicalnot" format="1">
  <advance width="1589"/>
  <unicode hex="00AC"/>
  <outline>
    <contour>
      <point x="1147" y="105" type="line"/>
      <point x="1422" y="105" type="line"/>
      <point x="1422" y="827" type="line"/>
      <point x="161" y="827" type="line"/>
      <point x="161" y="577" type="line"/>
      <point x="1147" y="577" type="line"/>
    </contour>
  </outline>
</glyph>
<glyph name="registered" format="1">
  <advance width="1847"/>
  <unicode hex="00AE"/>
  <outline>
    <contour>
      <point x="594" y="254" type="line"/>
      <point x="740" y="254" type="line"/>
      <point x="740" y="638" type="line"/>
      <point x="933" y="638" type="line"/>
      <point x="1188" y="254" type="line"/>
      <point x="1319" y="254" type="line"/>
      <point x="1319" y="299" type="line"/>
      <point x="1077" y="656" type="line"/>
      <point x="1201" y="677"/>
      <point x="1280" y="755"/>
      <point x="1280" y="896" type="curve" smooth="yes"/>
      <point x="1280" y="1114"/>
      <point x="1074" y="1151"/>
      <point x="891" y="1151" type="curve" smooth="yes"/>
      <point x="594" y="1151" type="line"/>
    </contour>
    <contour>
      <point x="740" y="746" type="line"/>
      <point x="740" y="1042" type="line"/>
      <point x="896" y="1042" type="line" smooth="yes"/>
      <point x="1110" y="1042"/>
      <point x="1145" y="981"/>
      <point x="1145" y="887" type="curve" smooth="yes"/>
      <point x="1145" y="800"/>
      <point x="1082" y="746"/>
      <point x="959" y="746" type="curve" smooth="yes"/>
    </contour>
    <contour>
      <point x="924" y="-1" type="curve" smooth="yes"/>
      <point x="557" y="-1"/>
      <point x="224" y="280"/>
      <point x="224" y="681" type="curve" smooth="yes"/>
      <point x="224" y="1066"/>
      <point x="541" y="1362"/>
      <point x="924" y="1362" type="curve" smooth="yes"/>
      <point x="1293" y="1362"/>
      <point x="1625" y="1080"/>
      <point x="1625" y="681" type="curve" smooth="yes"/>
      <point x="1625" y="287"/>
      <point x="1299" y="-1"/>
    </contour>
    <contour>
      <point x="924" y="-130" type="curve" smooth="yes"/>
      <point x="1391" y="-130"/>
      <point x="1771" y="236"/>
      <point x="1771" y="681" type="curve" smooth="yes"/>
      <point x="1771" y="1131"/>
      <point x="1379" y="1491"/>
      <point x="924" y="1491" type="curve" smooth="yes"/>
      <point x="457" y="1491"/>
      <point x="77" y="1125"/>
      <point x="77" y="681" type="curve" smooth="yes"/>
      <point x="77" y="211"/>
      <point x="475" y="-130"/>
    </contour>
  </outline>
</glyph>
<glyph name="macron" format="1">
  <advance width="492"/>
  <unicode hex="00AF"/>
  <outline>
    <contour>
      <point x="-49" y="1236" type="line"/>
      <point x="541" y="1236" type="line"/>
      <point x="541" y="1378" type="line"/>
      <point x="-49" y="1378" type="line"/>
    </contour>
    <contour>
      <point x="246" y="1098" type="move" name="_top"/>
    </contour>
  </outline>
</glyph>
<glyph name="degree" format="1">
  <advance width="1012"/>
  <unicode hex="00B0"/>
  <outline>
    <contour>
      <point x="507" y="922" type="curve" smooth="yes"/>
      <point x="385" y="922"/>
      <point x="285" y="1016"/>
      <point x="285" y="1138" type="curve" smooth="yes"/>
      <point x="285" y="1255"/>
      <point x="384" y="1354"/>
      <point x="507" y="1354" type="curve" smooth="yes"/>
      <point x="630" y="1354"/>
      <point x="728" y="1255"/>
      <point x="728" y="1138" type="curve" smooth="yes"/>
      <point x="728" y="1019"/>
      <point x="631" y="922"/>
    </contour>
    <contour>
      <point x="507" y="809" type="curve" smooth="yes"/>
      <point x="699" y="809"/>
      <point x="855" y="954"/>
      <point x="855" y="1138" type="curve" smooth="yes"/>
      <point x="855" y="1321"/>
      <point x="699" y="1466"/>
      <point x="507" y="1466" type="curve" smooth="yes"/>
      <point x="317" y="1466"/>
      <point x="159" y="1322"/>
      <point x="159" y="1138" type="curve" smooth="yes"/>
      <point x="159" y="955"/>
      <point x="315" y="809"/>
    </contour>
  </outline>
</glyph>
<glyph name="acute" format="1">
  <advance width="897"/>
  <unicode hex="00B4"/>
  <outline>
    <contour>
      <point x="304" y="1209" type="line"/>
      <point x="468" y="1209" type="line"/>
      <point x="779" y="1575" type="line"/>
      <point x="508" y="1575" type="line"/>
    </contour>
    <contour>
      <point x="541.5" y="1098" type="move" name="_top"/>
    </contour>
  </outline>
</glyph>
<glyph name="periodcentered" format="1">
  <advance width="492"/>
  <unicode hex="00B7"/>
  <outline>
    <contour>
      <point x="246" y="461" type="curve" smooth="yes"/>
      <point x="322" y="461"/>
      <point x="383" y="522"/>
      <point x="383" y="598" type="curve" smooth="yes"/>
      <point x="383" y="674"/>
      <point x="322" y="735"/>
      <point x="246" y="735" type="curve" smooth="yes"/>
      <point x="170" y="735"/>
      <point x="109" y="674"/>
      <point x="109" y="598" type="curve" smooth="yes"/>
      <point x="109" y="522"/>
      <point x="170" y="461"/>
    </contour>
  </outline>
</glyph>
<glyph name="cedilla" format="1">
  <advance width="995"/>
  <unicode hex="00B8"/>
  <outline>
    <contour>
      <point x="429" y="-535" type="curve" smooth="yes"/>
      <point x="637" y="-535"/>
      <point x="738" y="-424"/>
      <point x="738" y="-296" type="curve" smooth="yes"/>
      <point x="738" y="-197"/>
      <point x="671" y="-120"/>
      <point x="500" y="-116" type="curve"/>
      <point x="543" y="2" type="line"/>
      <point x="432" y="2" type="line"/>
      <point x="363" y="-195" type="line"/>
      <point x="381" y="-198"/>
      <point x="398" y="-202"/>
      <point x="414" y="-207" type="curve"/>
      <point x="428.68775776" y="-203.699380279"/>
      <point x="442.966987125" y="-202.169050271"/>
      <point x="456.572503375" y="-202.211245101" type="curve" smooth="yes"/>
      <point x="525.409179188" y="-202.4247285"/>
      <point x="577.0" y="-242.892045081"/>
      <point x="577" y="-298" type="curve" smooth="yes"/>
      <point x="577" y="-358"/>
      <point x="523" y="-408"/>
      <point x="431" y="-408" type="curve" smooth="yes"/>
      <point x="388" y="-408"/>
      <point x="345" y="-385"/>
      <point x="327" y="-362" type="curve"/>
      <point x="258" y="-362" type="line"/>
      <point x="225" y="-489" type="line"/>
      <point x="279" y="-515"/>
      <point x="375" y="-535"/>
    </contour>
    <contour>
      <point x="481.5" y="0" type="move" name="_bottom"/>
    </contour>
  </outline>
</glyph>
<glyph name="ordmasculine" format="1">
  <advance width="990"/>
  <unicode hex="00BA"/>
  <outline>
    <contour>
      <point x="507" y="845" type="curve" smooth="yes"/>
      <point x="382" y="845"/>
      <point x="325" y="943"/>
      <point x="325" y="1105" type="curve" smooth="yes"/>
      <point x="325" y="1299"/>
      <point x="410" y="1363"/>
      <point x="507" y="1363" type="curve" smooth="yes"/>
      <point x="627" y="1363"/>
      <point x="688" y="1269"/>
      <point x="688" y="1105" type="curve" smooth="yes"/>
      <point x="688" y="960"/>
      <point x="628" y="845"/>
    </contour>
    <contour>
      <point x="507" y="687" type="curve" smooth="yes"/>
      <point x="760" y="687"/>
      <point x="900" y="834"/>
      <point x="900" y="1105" type="curve" smooth="yes"/>
      <point x="900" y="1380"/>
      <point x="760" y="1521"/>
      <point x="507" y="1521" type="curve" smooth="yes"/>
      <point x="256" y="1521"/>
      <point x="113" y="1380"/>
      <point x="113" y="1105" type="curve" smooth="yes"/>
      <point x="113" y="834"/>
      <point x="253" y="687"/>
    </contour>
  </outline>
</glyph>
<glyph name="onehalf" format="1">
  <advance width="1562.0"/>
  <unicode hex="00BD"/>
  <outline>
    <contour>
      <point x="277" y="0" type="line"/>
      <point x="412" y="0" type="line"/>
      <point x="1297" y="1521" type="line"/>
      <point x="1161" y="1521" type="line"/>
    </contour>
    <component base="two.superior" xOffset="886" yOffset="-589"/>
    <component base="one.superior" xOffset="-80"/>
  </outline>
</glyph>
<glyph name="AE" format="1">
  <advance width="2054"/>
  <unicode hex="00C6"/>
  <outline>
    <contour>
      <point x="70" y="0" type="line"/>
      <point x="337" y="0" type="line"/>
      <point x="538" y="355" type="line"/>
      <point x="1094" y="355" type="line"/>
      <point x="1094" y="0" type="line"/>
      <point x="1971" y="0" type="line"/>
      <point x="1971" y="192" type="line"/>
      <point x="1350" y="192" type="line"/>
      <point x="1350" y="705" type="line"/>
      <point x="1887" y="705" type="line"/>
      <point x="1887" y="897" type="line"/>
      <point x="1350" y="897" type="line"/>
      <point x="1350" y="1383" type="line"/>
      <point x="1972" y="1383" type="line"/>
      <point x="1972" y="1575" type="line"/>
      <point x="936" y="1575" type="line"/>
    </contour>
    <contour>
      <point x="632" y="547" type="line"/>
      <point x="1076" y="1383" type="line"/>
      <point x="1094" y="1383" type="line"/>
      <point x="1094" y="547" type="line"/>
    </contour>
    <contour>
      <point x="1027" y="1575" type="move" name="top"/>
    </contour>
  </outline>
</glyph>
<glyph name="Eth" format="1">
  <advance width="1291"/>
  <unicode hex="00D0"/>
  <outline>
    <contour>
      <point x="0" y="737" type="line"/>
      <point x="704" y="737" type="line"/>
      <point x="704" y="904" type="line"/>
      <point x="0" y="904" type="line"/>
    </contour>
    <component base="D"/>
  </outline>
</glyph>
<glyph name="ae" format="1">
  <advance width="1877"/>
  <unicode hex="00E6"/>
  <outline>
    <contour>
      <point x="473" y="-25" type="curve" smooth="yes"/>
      <point x="640" y="-25"/>
      <point x="814" y="26"/>
      <point x="927" y="223" type="curve"/>
      <point x="976" y="107"/>
      <point x="1116" y="-24"/>
      <point x="1349" y="-24" type="curve" smooth="yes"/>
      <point x="1605" y="-24"/>
      <point x="1700" y="42"/>
      <point x="1792" y="103" type="curve"/>
      <point x="1742" y="261" type="line"/>
      <point x="1692" y="261" type="line"/>
      <point x="1656" y="228"/>
      <point x="1555" y="158"/>
      <point x="1399" y="158" type="curve" smooth="yes"/>
      <point x="1178" y="158"/>
      <point x="1059" y="277"/>
      <point x="1051" y="489" type="curve"/>
      <point x="1802" y="489" type="line"/>
      <point x="1802" y="558" type="line" smooth="yes"/>
      <point x="1802" y="879"/>
      <point x="1644" y="1123"/>
      <point x="1308" y="1123" type="curve" smooth="yes"/>
      <point x="1176" y="1123"/>
      <point x="1042" y="1078"/>
      <point x="952" y="977" type="curve"/>
      <point x="860" y="1104"/>
      <point x="713" y="1125"/>
      <point x="526" y="1125" type="curve" smooth="yes"/>
      <point x="392" y="1125"/>
      <point x="212" y="1082"/>
      <point x="141" y="1032" type="curve"/>
      <point x="201" y="858" type="line"/>
      <point x="289" y="903"/>
      <point x="447" y="933"/>
      <point x="538" y="933" type="curve" smooth="yes"/>
      <point x="741" y="933"/>
      <point x="792" y="839"/>
      <point x="794" y="688" type="curve"/>
      <point x="794" y="688"/>
      <point x="625" y="684"/>
      <point x="576" y="680" type="curve" smooth="yes"/>
      <point x="279" y="659"/>
      <point x="71" y="567"/>
      <point x="71" y="308" type="curve" smooth="yes"/>
      <point x="71" y="71"/>
      <point x="275" y="-25"/>
    </contour>
    <contour>
      <point x="486" y="163" type="curve" smooth="yes"/>
      <point x="362" y="163"/>
      <point x="313" y="248"/>
      <point x="313" y="327" type="curve" smooth="yes"/>
      <point x="313" y="452"/>
      <point x="430" y="521"/>
      <point x="795" y="534" type="curve"/>
      <point x="795" y="302"/>
      <point x="685" y="163"/>
    </contour>
    <contour>
      <point x="1051" y="651" type="line"/>
      <point x="1076" y="794"/>
      <point x="1127" y="944"/>
      <point x="1317" y="944" type="curve" smooth="yes"/>
      <point x="1489" y="944"/>
      <point x="1570" y="797"/>
      <point x="1572" y="651" type="curve"/>
    </contour>
    <contour>
      <point x="939" y="1098" type="move" name="top"/>
    </contour>
  </outline>
</glyph>
<glyph name="divide" format="1">
  <advance width="1589"/>
  <unicode hex="00F7"/>
  <outline>
    <contour>
      <point x="793.5" y="0" type="curve" smooth="yes"/>
      <point x="911.628" y="0"/>
      <point x="1007.5" y="95.872"/>
      <point x="1007.5" y="214" type="curve" smooth="yes"/>
      <point x="1007.5" y="332.128"/>
      <point x="911.628" y="428"/>
      <point x="793.5" y="428" type="curve" smooth="yes"/>
      <point x="675.372" y="428"/>
      <point x="579.5" y="332.128"/>
      <point x="579.5" y="214" type="curve" smooth="yes"/>
      <point x="579.5" y="95.872"/>
      <point x="675.372" y="0"/>
    </contour>
    <contour>
      <point x="161" y="526" type="line"/>
      <point x="1428" y="526" type="line"/>
      <point x="1428" y="776" type="line"/>
      <point x="161" y="776" type="line"/>
    </contour>
    <contour>
      <point x="793.5" y="877.5" type="curve" smooth="yes"/>
      <point x="911.628" y="877.5"/>
      <point x="1007.5" y="973.372"/>
      <point x="1007.5" y="1091.5" type="curve" smooth="yes"/>
      <point x="1007.5" y="1209.63"/>
      <point x="911.628" y="1305.5"/>
      <point x="793.5" y="1305.5" type="curve" smooth="yes"/>
      <point x="675.372" y="1305.5"/>
      <point x="579.5" y="1209.63"/>
      <point x="579.5" y="1091.5" type="curve" smooth="yes"/>
      <point x="579.5" y="973.372"/>
      <point x="675.372" y="877.5"/>
    </contour>
  </outline>
</glyph>
<glyph name="thorn" format="1">
  <advance width="1215"/>
  <unicode hex="00FE"/>
  <outline>
    <contour>
      <point x="122" y="-414" type="line"/>
      <point x="378" y="-414" type="line"/>
      <point x="378" y="76" type="line"/>
      <point x="425" y="27"/>
      <point x="549" y="-28"/>
      <point x="666" y="-28" type="curve" smooth="yes"/>
      <point x="951" y="-28"/>
      <point x="1134" y="171"/>
      <point x="1134" y="548" type="curve" smooth="yes"/>
      <point x="1134" y="885"/>
      <point x="984" y="1122"/>
      <point x="690" y="1122" type="curve" smooth="yes"/>
      <point x="563" y="1122"/>
      <point x="422" y="1054"/>
      <point x="378" y="986" type="curve"/>
      <point x="378" y="1521" type="line"/>
      <point x="122" y="1521" type="line"/>
    </contour>
    <contour>
      <point x="625" y="165" type="curve" smooth="yes"/>
      <point x="566" y="165"/>
      <point x="463" y="178"/>
      <point x="378" y="230" type="curve"/>
      <point x="378" y="869" type="line"/>
      <point x="437" y="920"/>
      <point x="556" y="930"/>
      <point x="602" y="930" type="curve" smooth="yes"/>
      <point x="785" y="930"/>
      <point x="878" y="772"/>
      <point x="878" y="547" type="curve" smooth="yes"/>
      <point x="878" y="351"/>
      <point x="815" y="165"/>
    </contour>
  </outline>
</glyph>
<glyph name="dotlessi" format="1">
  <advance width="526"/>
  <unicode hex="0131"/>
  <outline>
    <contour>
      <point x="128" y="0" type="line"/>
      <point x="384" y="0" type="line"/>
      <point x="384" y="1098" type="line"/>
      <point x="128" y="1098" type="line"/>
    </contour>
    <contour>
      <point x="263" y="1098" type="move" name="top"/>
    </contour>
    <contour>
      <point x="473" y="10" type="move" name="ogonek"/>
    </contour>
  </outline>
</glyph>
<glyph name="Lslash" format="1">
  <advance width="1221"/>
  <unicode hex="0141"/>
  <outline>
    <contour>
      <point x="217" y="0" type="line"/>
      <point x="1178" y="0" type="line"/>
      <point x="1178" y="192" type="line"/>
      <point x="473" y="192" type="line"/>
      <point x="473" y="709" type="line"/>
      <point x="758" y="915" type="line"/>
      <point x="758" y="1099" type="line"/>
      <point x="473" y="893" type="line"/>
      <point x="473" y="1575" type="line"/>
      <point x="217" y="1575" type="line"/>
      <point x="217" y="708" type="line"/>
      <point x="69" y="601" type="line"/>
      <point x="69" y="417" type="line"/>
      <point x="217" y="524" type="line"/>
    </contour>
  </outline>
</glyph>
<glyph name="breve" format="1">
  <advance width="894"/>
  <unicode hex="02D8"/>
  <outline>
    <contour>
      <point x="451" y="1220" type="curve" smooth="yes"/>
      <point x="674" y="1220"/>
      <point x="817" y="1341"/>
      <point x="821" y="1568" type="curve"/>
      <point x="628" y="1568" type="line"/>
      <point x="620" y="1464"/>
      <point x="569" y="1394"/>
      <point x="451" y="1394" type="curve" smooth="yes"/>
      <point x="320" y="1394"/>
      <point x="282" y="1469"/>
      <point x="273" y="1568" type="curve"/>
      <point x="82" y="1568" type="line"/>
      <point x="86" y="1341"/>
      <point x="209" y="1220"/>
    </contour>
    <contour>
      <point x="451.5" y="1098" type="move" name="_top"/>
    </contour>
  </outline>
</glyph>
<glyph name="dotaccent" format="1">
  <advance width="899"/>
  <unicode hex="02D9"/>
  <outline>
    <contour>
      <point x="437" y="1221" type="curve" smooth="yes"/>
      <point x="535" y="1221"/>
      <point x="614" y="1300"/>
      <point x="614" y="1398" type="curve" smooth="yes"/>
      <point x="614" y="1496"/>
      <point x="535" y="1575"/>
      <point x="437" y="1575" type="curve" smooth="yes"/>
      <point x="339" y="1575"/>
      <point x="260" y="1496"/>
      <point x="260" y="1398" type="curve" smooth="yes"/>
      <point x="260" y="1300"/>
      <point x="339" y="1221"/>
    </contour>
    <contour>
      <point x="450.5" y="1098" type="move" name="_top"/>
    </contour>
  </outline>
</glyph>
<glyph name="ring" format="1">
  <advance width="898"/>
  <unicode hex="02DA"/>
  <outline>
    <contour>
      <point x="450" y="1185" type="curve" smooth="yes"/>
      <point x="363" y="1185"/>
      <point x="299" y="1252"/>
      <point x="299" y="1340" type="curve" smooth="yes"/>
      <point x="299" y="1428"/>
      <point x="366" y="1497"/>
      <point x="450" y="1497" type="curve" smooth="yes"/>
      <point x="537" y="1497"/>
      <point x="601" y="1424"/>
      <point x="601" y="1340" type="curve" smooth="yes"/>
      <point x="601" y="1255"/>
      <point x="537" y="1185"/>
    </contour>
    <contour>
      <point x="450" y="1111" type="curve" smooth="yes"/>
      <point x="585" y="1111"/>
      <point x="693" y="1210"/>
      <point x="693" y="1341" type="curve" smooth="yes"/>
      <point x="693" y="1472"/>
      <point x="585" y="1571"/>
      <point x="450" y="1571" type="curve" smooth="yes"/>
      <point x="316" y="1571"/>
      <point x="206" y="1471"/>
      <point x="206" y="1342" type="curve" smooth="yes"/>
      <point x="206" y="1212"/>
      <point x="314" y="1111"/>
    </contour>
    <contour>
      <point x="449.5" y="1098" type="move" name="_top"/>
    </contour>
  </outline>
</glyph>
<glyph name="hungarumlaut" format="1">
  <advance width="897"/>
  <unicode hex="02DD"/>
  <outline>
    <contour>
      <point x="57" y="1209" type="line"/>
      <point x="221" y="1209" type="line"/>
      <point x="502" y="1575" type="line"/>
      <point x="261" y="1575" type="line"/>
    </contour>
    <contour>
      <point x="383" y="1209" type="line"/>
      <point x="547" y="1209" type="line"/>
      <point x="858" y="1575" type="line"/>
      <point x="597" y="1575" type="line"/>
    </contour>
    <contour>
      <point x="457.5" y="1098" type="move" name="_top"/>
    </contour>
  </outline>
</glyph>
<glyph name="uni03A9" format="1">
  <advance width="1242"/>
  <unicode hex="03A9"/>
  <outline>
    <contour>
      <point x="72" y="0" type="line"/>
      <point x="519" y="0" type="line"/>
      <point x="519" y="125" type="line"/>
      <point x="409" y="213"/>
      <point x="299" y="446"/>
      <point x="299" y="745" type="curve" smooth="yes"/>
      <point x="299" y="1049"/>
      <point x="423" y="1274"/>
      <point x="624" y="1274" type="curve" smooth="yes"/>
      <point x="837" y="1274"/>
      <point x="939" y="1012"/>
      <point x="939" y="754" type="curve" smooth="yes"/>
      <point x="939" y="430"/>
      <point x="832" y="215"/>
      <point x="720" y="125" type="curve"/>
      <point x="720" y="0" type="line"/>
      <point x="1166" y="0" type="line"/>
      <point x="1166" y="170" type="line"/>
      <point x="919" y="170" type="line"/>
      <point x="919" y="176" type="line"/>
      <point x="1029" y="299"/>
      <point x="1142" y="526"/>
      <point x="1142" y="801" type="curve" smooth="yes"/>
      <point x="1142" y="1120"/>
      <point x="962" y="1452"/>
      <point x="628" y="1452" type="curve" smooth="yes"/>
      <point x="316" y="1452"/>
      <point x="96" y="1165"/>
      <point x="96" y="786" type="curve" smooth="yes"/>
      <point x="96" y="518"/>
      <point x="203" y="307"/>
      <point x="317" y="176" type="curve"/>
      <point x="317" y="170" type="line"/>
      <point x="72" y="170" type="line"/>
    </contour>
    <contour>
      <point x="20" y="1575" type="move" name="topleft"/>
    </contour>
  </outline>
</glyph>
<glyph name="quoteright" format="1">
  <advance width="564"/>
  <unicode hex="2019"/>
  <outline>
    <contour>
      <point x="97" y="1057" type="line"/>
      <point x="260" y="1057" type="line"/>
      <point x="445" y="1575" type="line"/>
      <point x="202" y="1575" type="line"/>
    </contour>
  </outline>
</glyph>
<glyph name="quotedblleft" format="1">
  <advance width="944"/>
  <unicode hex="201C"/>
  <outline>
    <contour>
      <point x="282" y="1057" type="line"/>
      <point x="445" y="1057" type="line"/>
      <point x="340" y="1575" type="line"/>
      <point x="97" y="1575" type="line"/>
    </contour>
    <contour>
      <point x="647" y="1057" type="line"/>
      <point x="810" y="1057" type="line"/>
      <point x="705" y="1575" type="line"/>
      <point x="462" y="1575" type="line"/>
    </contour>
  </outline>
</glyph>
<glyph name="quotedblright" format="1">
  <advance width="944"/>
  <unicode hex="201D"/>
  <outline>
    <contour>
      <point x="97" y="1057" type="line"/>
      <point x="260" y="1057" type="line"/>
      <point x="445" y="1575" type="line"/>
      <point x="202" y="1575" type="line"/>
    </contour>
    <contour>
      <point x="462" y="1057" type="line"/>
      <point x="625" y="1057" type="line"/>
      <point x="810" y="1575" type="line"/>
      <point x="567" y="1575" type="line"/>
    </contour>
  </outline>
</glyph>
<glyph name="dagger" format="1">
  <advance width="1254"/>
  <unicode hex="2020"/>
  <outline>
    <contour>
      <point x="489" y="-53" type="line"/>
      <point x="762" y="-53" type="line"/>
      <point x="762" y="868" type="line"/>
      <point x="1126" y="868" type="line"/>
      <point x="1126" y="1088" type="line"/>
      <point x="765" y="1088" type="line"/>
      <point x="765" y="1523" type="line"/>
      <point x="493" y="1523" type="line"/>
      <point x="493" y="1090" type="line"/>
      <point x="128" y="1090" type="line"/>
      <point x="128" y="871" type="line"/>
      <point x="489" y="871" type="line"/>
    </contour>
  </outline>
</glyph>
<glyph name="daggerdbl" format="1">
  <advance width="1254"/>
  <unicode hex="2021"/>
  <outline>
    <contour>
      <point x="490" y="-50" type="line"/>
      <point x="762" y="-50" type="line"/>
      <point x="762" y="354" type="line"/>
      <point x="1126" y="354" type="line"/>
      <point x="1126" y="573" type="line"/>
      <point x="760" y="573" type="line"/>
      <point x="760" y="909" type="line"/>
      <point x="1126" y="909" type="line"/>
      <point x="1126" y="1128" type="line"/>
      <point x="765" y="1128" type="line"/>
      <point x="765" y="1523" type="line"/>
      <point x="493" y="1523" type="line"/>
      <point x="493" y="1131" type="line"/>
      <point x="128" y="1131" type="line"/>
      <point x="128" y="912" type="line"/>
      <point x="495" y="912" type="line"/>
      <point x="495" y="576" type="line"/>
      <point x="128" y="576" type="line"/>
      <point x="128" y="356" type="line"/>
      <point x="490" y="356" type="line"/>
    </contour>
  </outline>
</glyph>
<glyph name="bullet" format="1">
  <advance width="1318"/>
  <unicode hex="2022"/>
  <outline>
    <contour>
      <point x="658" y="227" type="curve" smooth="yes"/>
      <point x="930" y="227"/>
      <point x="1139" y="433"/>
      <point x="1139" y="695" type="curve" smooth="yes"/>
      <point x="1139" y="955"/>
      <point x="932" y="1161"/>
      <point x="658" y="1161" type="curve" smooth="yes"/>
      <point x="388" y="1161"/>
      <point x="178" y="955"/>
      <point x="178" y="695" type="curve" smooth="yes"/>
      <point x="178" y="434"/>
      <point x="386" y="227"/>
    </contour>
  </outline>
</glyph>
<glyph name="ellipsis" format="1">
  <advance width="2241"/>
  <unicode hex="2026"/>
  <outline>
    <contour>
      <point x="1693" y="0" type="curve"/>
      <point x="2046" y="0" type="line"/>
      <point x="2045" y="77"/>
      <point x="2041" y="150"/>
      <point x="2041" y="226" type="curve" smooth="yes"/>
      <point x="2041" y="274"/>
      <point x="2042" y="322"/>
      <point x="2046" y="373" type="curve"/>
      <point x="1693" y="373" type="line"/>
      <point x="1694" y="309"/>
      <point x="1696" y="246"/>
      <point x="1696" y="182" type="curve" smooth="yes"/>
      <point x="1696" y="161"/>
      <point x="1697" y="140"/>
      <point x="1697" y="118" type="curve" smooth="yes"/>
      <point x="1697" y="80"/>
      <point x="1694" y="41"/>
    </contour>
    <contour>
      <point x="198" y="0" type="curve"/>
      <point x="550" y="0" type="line"/>
      <point x="547" y="76"/>
      <point x="544" y="149"/>
      <point x="544" y="224" type="curve" smooth="yes"/>
      <point x="544" y="271"/>
      <point x="547" y="322"/>
      <point x="550" y="373" type="curve"/>
      <point x="198" y="373" type="line"/>
      <point x="200" y="297"/>
      <point x="201" y="225"/>
      <point x="201" y="150" type="curve" smooth="yes"/>
      <point x="201" y="102"/>
      <point x="200" y="52"/>
    </contour>
    <contour>
      <point x="1293" y="-3" type="curve"/>
      <point x="1293" y="121"/>
      <point x="1295" y="246"/>
      <point x="1297" y="373" type="curve"/>
      <point x="1183" y="373"/>
      <point x="1065" y="376"/>
      <point x="950" y="379" type="curve"/>
      <point x="950" y="253"/>
      <point x="948" y="129"/>
      <point x="945" y="0" type="curve"/>
      <point x="1060" y="0"/>
      <point x="1177" y="-1"/>
    </contour>
  </outline>
</glyph>
<glyph name="perthousand" format="1">
  <advance width="2754"/>
  <unicode hex="2030"/>
  <outline>
    <contour>
      <point x="440" y="907" type="curve" smooth="yes"/>
      <point x="343" y="907"/>
      <point x="337" y="989"/>
      <point x="337" y="1100" type="curve" smooth="yes"/>
      <point x="337" y="1229"/>
      <point x="345" y="1307"/>
      <point x="440" y="1307" type="curve" smooth="yes"/>
      <point x="531" y="1307"/>
      <point x="544" y="1232"/>
      <point x="544" y="1114" type="curve"/>
      <point x="542" y="969"/>
      <point x="525" y="907"/>
    </contour>
    <contour>
      <point x="440" y="728" type="curve" smooth="yes"/>
      <point x="674" y="728"/>
      <point x="780" y="855"/>
      <point x="780" y="1133" type="curve" smooth="yes"/>
      <point x="780" y="1369"/>
      <point x="657" y="1483"/>
      <point x="440" y="1483" type="curve" smooth="yes"/>
      <point x="209" y="1483"/>
      <point x="96" y="1359"/>
      <point x="96" y="1080" type="curve" smooth="yes"/>
      <point x="96" y="840"/>
      <point x="223" y="728"/>
    </contour>
    <contour>
      <point x="439" y="0" type="line"/>
      <point x="697" y="0" type="line"/>
      <point x="1473" y="1479" type="line"/>
      <point x="1216" y="1479" type="line"/>
    </contour>
    <contour>
      <point x="1488" y="175" type="curve" smooth="yes"/>
      <point x="1391" y="175"/>
      <point x="1385" y="256"/>
      <point x="1385" y="368" type="curve" smooth="yes"/>
      <point x="1385" y="497"/>
      <point x="1394" y="575"/>
      <point x="1488" y="575" type="curve" smooth="yes"/>
      <point x="1580" y="575"/>
      <point x="1592" y="500"/>
      <point x="1592" y="382" type="curve" smooth="yes"/>
      <point x="1591" y="237"/>
      <point x="1573" y="175"/>
    </contour>
    <contour>
      <point x="1488" y="-4" type="curve" smooth="yes"/>
      <point x="1723" y="-4"/>
      <point x="1828" y="122"/>
      <point x="1828" y="401" type="curve" smooth="yes"/>
      <point x="1828" y="637"/>
      <point x="1705" y="751"/>
      <point x="1488" y="751" type="curve" smooth="yes"/>
      <point x="1257" y="751"/>
      <point x="1144" y="627"/>
      <point x="1144" y="348" type="curve" smooth="yes"/>
      <point x="1144" y="108"/>
      <point x="1271" y="-4"/>
    </contour>
    <contour>
      <point x="2310" y="175" type="curve" smooth="yes"/>
      <point x="2213" y="175"/>
      <point x="2207" y="257"/>
      <point x="2207" y="368" type="curve" smooth="yes"/>
      <point x="2207" y="497"/>
      <point x="2215" y="575"/>
      <point x="2310" y="575" type="curve" smooth="yes"/>
      <point x="2402" y="575"/>
      <point x="2413" y="500"/>
      <point x="2413" y="382" type="curve"/>
      <point x="2411" y="237"/>
      <point x="2395" y="175"/>
    </contour>
    <contour>
      <point x="2310" y="-4" type="curve" smooth="yes"/>
      <point x="2545" y="-4"/>
      <point x="2649" y="122"/>
      <point x="2649" y="401" type="curve" smooth="yes"/>
      <point x="2649" y="637"/>
      <point x="2527" y="751"/>
      <point x="2310" y="751" type="curve" smooth="yes"/>
      <point x="2079" y="751"/>
      <point x="1966" y="627"/>
      <point x="1966" y="348" type="curve" smooth="yes"/>
      <point x="1966" y="108"/>
      <point x="2093" y="-4"/>
    </contour>
  </outline>
</glyph>
<glyph name="guilsinglleft" format="1">
  <advance width="796"/>
  <unicode hex="2039"/>
  <outline>
    <contour>
      <point x="689" y="142" type="curve"/>
      <point x="689" y="435" type="line"/>
      <point x="608" y="500"/>
      <point x="532" y="565"/>
      <point x="450" y="628" type="curve"/>
      <point x="689" y="820" type="line"/>
      <point x="689" y="1114" type="line"/>
      <point x="689" y="1114"/>
      <point x="267" y="765"/>
      <point x="157" y="675" type="curve"/>
      <point x="157" y="567" type="line"/>
      <point x="266" y="486"/>
      <point x="689" y="142"/>
    </contour>
  </outline>
</glyph>
<glyph name="guilsinglright" format="1">
  <advance width="796"/>
  <unicode hex="203A"/>
  <outline>
    <contour>
      <point x="157.0" y="142.0" type="line"/>
      <point x="157.0" y="142.0"/>
      <point x="579.0" y="491.0"/>
      <point x="689.0" y="581.0" type="curve"/>
      <point x="689.0" y="689.0" type="line"/>
      <point x="580.0" y="770.0"/>
      <point x="157.0" y="1114.0"/>
      <point x="157.0" y="1114.0" type="curve"/>
      <point x="157.0" y="821.0" type="line"/>
      <point x="238.0" y="756.0"/>
      <point x="314.0" y="691.0"/>
      <point x="396.0" y="628.0" type="curve"/>
      <point x="157.0" y="436.0" type="line"/>
    </contour>
  </outline>
</glyph>
<glyph name="trademark" format="1">
  <advance width="1871"/>
  <unicode hex="2122"/>
  <outline>
    <contour>
      <point x="824" y="819" type="line"/>
      <point x="979" y="819" type="line"/>
      <point x="979" y="1442" type="line"/>
      <point x="988" y="1442" type="line"/>
      <point x="1199" y="953" type="line"/>
      <point x="1334" y="953" type="line"/>
      <point x="1539" y="1437" type="line"/>
      <point x="1548" y="1437" type="line"/>
      <point x="1548" y="819" type="line"/>
      <point x="1706" y="819" type="line"/>
      <point x="1706" y="1575" type="line"/>
      <point x="1460" y="1575" type="line"/>
      <point x="1268" y="1142" type="line"/>
      <point x="1081" y="1575" type="line"/>
      <point x="824" y="1575" type="line"/>
    </contour>
    <contour>
      <point x="341" y="819" type="line"/>
      <point x="497" y="819" type="line"/>
      <point x="497" y="1448" type="line"/>
      <point x="707" y="1448" type="line"/>
      <point x="707" y="1575" type="line"/>
      <point x="131" y="1575" type="line"/>
      <point x="131" y="1448" type="line"/>
      <point x="341" y="1448" type="line"/>
    </contour>
  </outline>
</glyph>
<glyph name="product" format="1">
  <advance width="1566"/>
  <unicode hex="220F"/>
  <outline>
    <contour>
      <point x="195" y="-284" type="line"/>
      <point x="451" y="-284" type="line"/>
      <point x="451" y="1280" type="line"/>
      <point x="1126" y="1280" type="line"/>
      <point x="1126" y="-284" type="line"/>
      <point x="1382" y="-284" type="line"/>
      <point x="1382" y="1521" type="line"/>
      <point x="195" y="1521" type="line"/>
    </contour>
  </outline>
</glyph>
<glyph name="minus" format="1">
  <advance width="1230"/>
  <unicode hex="2212"/>
  <outline>
    <contour>
      <point x="96" y="437" type="line"/>
      <point x="1135" y="437" type="line"/>
      <point x="1135" y="642" type="line"/>
      <point x="96" y="642" type="line"/>
    </contour>
  </outline>
</glyph>
<glyph name="uni2215" format="1">
  <advance width="1126"/>
  <unicode hex="2215"/>
  <outline>
    <contour>
      <point x="131.0" y="0.0" type="line"/>
      <point x="416.0" y="0.0" type="line"/>
      <point x="960.0" y="1574.0" type="line"/>
      <point x="673.0" y="1574.0" type="line"/>
    </contour>
  </outline>
</glyph>
<glyph name="f_i" format="1">
  <advance width="1287"/>
  <outline>
    <contour>
      <point x="200" y="0" type="line"/>
      <point x="456" y="0" type="line"/>
      <point x="456" y="927" type="line"/>
      <point x="881" y="927" type="line"/>
      <point x="881" y="0" type="line"/>
      <point x="1137" y="0" type="line"/>
      <point x="1137" y="1103" type="line"/>
      <point x="447" y="1103" type="line"/>
      <point x="447" y="1314"/>
      <point x="488" y="1349"/>
      <point x="624" y="1349" type="curve" smooth="yes"/>
      <point x="683" y="1349"/>
      <point x="763" y="1336"/>
      <point x="763" y="1336" type="curve"/>
      <point x="763" y="1520" type="line"/>
      <point x="705" y="1527"/>
      <point x="652" y="1533"/>
      <point x="574" y="1533" type="curve" smooth="yes"/>
      <point x="290" y="1533"/>
      <point x="200" y="1411"/>
      <point x="200" y="1144" type="curve" smooth="yes"/>
      <point x="200" y="1103" type="line"/>
      <point x="24" y="1103" type="line"/>
      <point x="24" y="927" type="line"/>
      <point x="200" y="927" type="line"/>
    </contour>
    <contour>
      <point x="1009" y="1222" type="curve" smooth="yes"/>
      <point x="1113" y="1222"/>
      <point x="1165" y="1297"/>
      <point x="1165" y="1371" type="curve" smooth="yes"/>
      <point x="1165" y="1446"/>
      <point x="1112" y="1521"/>
      <point x="1009" y="1521" type="curve" smooth="yes"/>
      <point x="904" y="1521"/>
      <point x="852" y="1447"/>
      <point x="852" y="1371" type="curve" smooth="yes"/>
      <point x="852" y="1297"/>
      <point x="905" y="1222"/>
    </contour>
  </outline>
</glyph>
<glyph name="one.superior" format="1">
  <advance width="639"/>
  <outline>
    <contour>
      <point x="126" y="588" type="line"/>
      <point x="569" y="588" type="line"/>
      <point x="569" y="695" type="line"/>
      <point x="419" y="695" type="line"/>
      <point x="419" y="1462" type="line"/>
      <point x="260" y="1462" type="line"/>
      <point x="238" y="1417"/>
      <point x="198" y="1380"/>
      <point x="112" y="1359" type="curve"/>
      <point x="112" y="1270" type="line"/>
      <point x="276" y="1320" type="line"/>
      <point x="276" y="695" type="line"/>
      <point x="126" y="695" type="line"/>
    </contour>
  </outline>
</glyph>
<glyph name="three.superior" format="1">
  <advance width="639"/>
  <outline>
    <contour>
      <point x="298.0" y="581.0" type="curve" smooth="yes"/>
      <point x="508.0" y="581.0"/>
      <point x="631.0" y="683.0"/>
      <point x="631.0" y="834.0" type="curve" smooth="yes"/>
      <point x="631.0" y="951.0"/>
      <point x="537.0" y="1026.0"/>
      <point x="458.0" y="1051.0" type="curve"/>
      <point x="529.0" y="1083.0"/>
      <point x="600.0" y="1132.0"/>
      <point x="600.0" y="1243.0" type="curve" smooth="yes"/>
      <point x="600.0" y="1362.0"/>
      <point x="507.0" y="1470.0"/>
      <point x="294.0" y="1470.0" type="curve" smooth="yes"/>
      <point x="193.0" y="1470.0"/>
      <point x="93.0" y="1444.0"/>
      <point x="39.0" y="1405.0" type="curve"/>
      <point x="39.0" y="1304.0" type="line"/>
      <point x="72.0" y="1304.0" type="line"/>
      <point x="72.0" y="1304.0"/>
      <point x="149.0" y="1363.0"/>
      <point x="278.0" y="1363.0" type="curve" smooth="yes"/>
      <point x="401.0" y="1363.0"/>
      <point x="459.0" y="1314.0"/>
      <point x="459.0" y="1243.0" type="curve" smooth="yes"/>
      <point x="459.0" y="1162.0"/>
      <point x="416.0" y="1098.0"/>
      <point x="263.0" y="1098.0" type="curve" smooth="yes"/>
      <point x="193.0" y="1098.0" type="line"/>
      <point x="193.0" y="1008.0" type="line"/>
      <point x="263.0" y="1008.0" type="line" smooth="yes"/>
      <point x="430.0" y="1008.0"/>
      <point x="491.0" y="915.0"/>
      <point x="491.0" y="834.0" type="curve" smooth="yes"/>
      <point x="491.0" y="739.0"/>
      <point x="415.0" y="686.0"/>
      <point x="282.0" y="686.0" type="curve" smooth="yes"/>
      <point x="125.0" y="686.0"/>
      <point x="72.0" y="749.0"/>
      <point x="72.0" y="749.0" type="curve"/>
      <point x="39.0" y="749.0" type="line"/>
      <point x="39.0" y="646.0" type="line"/>
      <point x="75.0" y="621.0"/>
      <point x="168.0" y="581.0"/>
    </contour>
  </outline>
</glyph>
